

Info:-

Format                           : Matroska
File size                        : 2.29 GiB
Duration                         : 3h 9mn
Overall bit rate                 : 1 734 Kbps
Movie name                       : DDLJ 720p 6CH By Abhinav4u

 Video :-

ID                               : 1
Format                           : AVC
Format/Info                      : Advanced Video Codec
Format profile                   : High@L4.0
Format settings, CABAC           : Yes
Format settings, ReFrames        : 3 frames
Muxing mode                      : Header stripping
Codec ID                         : V_MPEG4/ISO/AVC
Duration                         : 3h 9mn
Bit rate mode                    : Variable
Bit rate                         : 1 350 Kbps
Maximum bit rate                 : 25.0 Mbps
Width                            : 1 280 pixels
Height                           : 544 pixels
Display aspect ratio             : 2.35:1
Frame rate                       : 24.000 fps
Color space                      : YUV
Chroma subsampling               : 4:2:0
Bit depth                        : 8 bits
Scan type                        : Progressive
Bits/(Pixel*Frame)               : 0.081
Stream size                      : 1.74 GiB (76%)
Title                            : BY Abhinav4u
Writing library                  : x264 core 114 r1924 08d04a4

Audio:-

ID                               : 2
Format                           : AC-3
Format/Info                      : Audio Coding 3
Mode extension                   : CM (complete main)
Muxing mode                      : Header stripping
Codec ID                         : A_AC3
Duration                         : 3h 9mn
Bit rate mode                    : Constant
Bit rate                         : 384 Kbps
Channel(s)                       : 6 channels
Channel positions                : Front: L C R, Side: L R, LFE
Sampling rate                    : 48.0 KHz
Bit depth                        : 16 bits
Compression mode                 : Lossy
Stream size                      : 520 MiB (22%)
Title                            : 6 CH AC3..By Abhinav4u
Language                         : Hindi

Screens:-

[img]http://i.minus.com/ioRQHwdtUYI6N.png
[img]http://i.minus.com/ibgSgh2FVSvj1T.png
[img]http://i.minus.com/ibiA8tmUcQ1zuX.png
[img]http://i.minus.com/iFGQwG0NsXXq0.png
[img]http://i.minus.com/iVh7pMDIsdgru.png
[img]http://i.minus.com/iIyAgNc6rkzPq.png

Storyline:-

Raj is a rich, carefree, happy-go-lucky second generation NRI. Simran is the daughter of Chaudhary Baldev Singh, who in spite of being an NRI is very strict about adherence to Indian values. The two meet on a month long Eurotrip, and what began as pranks and fun and games, ends in love. But by the time they realize it, it is already too late, as Simran has left for India to be married to her childhood fiancé. Raj leaves for India with a mission at his hands, to claim his lady love under the noses of her whole family. Thus begins a saga. 

Box Office:-

Budget:
INR 40,000,000 (estimated) 
Opening Weekend:
£107,330 (UK) (26 March 2000) (21 Screens) 
Gross:
£107,330 (UK) (26 March 2000) 

NOTE:- Video Source BD 44GB Untouched

Sample Included..Check Sample First For your Satisfaction about the Quality..	


Enjoy The Rip..
Regards:-Abhinav4u